<svg width="67" height="39" viewBox="0 0 67 39" fill="none" xmlns="http://www.w3.org/2000/svg">
<path d="M42.5 15H36.5V21H30.5V15H24.5V9H30.5V3H36.5V9H42.5" fill="black"/>
<path d="M5.82955 29.4545C5.77841 29.0227 5.57102 28.6875 5.20739 28.4489C4.84375 28.2102 4.39773 28.0909 3.86932 28.0909C3.48295 28.0909 3.14489 28.1534 2.85511 28.2784C2.56818 28.4034 2.34375 28.5753 2.18182 28.794C2.02273 29.0128 1.94318 29.2614 1.94318 29.5398C1.94318 29.7727 1.99858 29.973 2.10938 30.1406C2.22301 30.3054 2.3679 30.4432 2.54403 30.554C2.72017 30.6619 2.90483 30.7514 3.09801 30.8224C3.29119 30.8906 3.46875 30.946 3.63068 30.9886L4.51705 31.2273C4.74432 31.2869 4.99716 31.3693 5.27557 31.4744C5.55682 31.5795 5.82528 31.723 6.08097 31.9048C6.33949 32.0838 6.55256 32.3139 6.72017 32.5952C6.88778 32.8764 6.97159 33.2216 6.97159 33.6307C6.97159 34.1023 6.84801 34.5284 6.60085 34.9091C6.35653 35.2898 5.99858 35.5923 5.52699 35.8168C5.05824 36.0412 4.48864 36.1534 3.81818 36.1534C3.19318 36.1534 2.65199 36.0526 2.1946 35.8509C1.74006 35.6491 1.3821 35.3679 1.12074 35.0071C0.862216 34.6463 0.715909 34.2273 0.681818 33.75H1.77273C1.80114 34.0795 1.91193 34.3523 2.10511 34.5682C2.30114 34.7812 2.5483 34.9403 2.84659 35.0455C3.14773 35.1477 3.47159 35.1989 3.81818 35.1989C4.22159 35.1989 4.58381 35.1335 4.90483 35.0028C5.22585 34.8693 5.48011 34.6847 5.66761 34.4489C5.85511 34.2102 5.94886 33.9318 5.94886 33.6136C5.94886 33.3239 5.8679 33.0881 5.70597 32.9062C5.54403 32.7244 5.33097 32.5767 5.06676 32.4631C4.80256 32.3494 4.51705 32.25 4.21023 32.1648L3.13636 31.858C2.45455 31.6619 1.91477 31.3821 1.51705 31.0185C1.11932 30.6548 0.920455 30.179 0.920455 29.5909C0.920455 29.1023 1.05256 28.6761 1.31676 28.3125C1.58381 27.946 1.94176 27.6619 2.39062 27.4602C2.84233 27.2557 3.34659 27.1534 3.90341 27.1534C4.46591 27.1534 4.96591 27.2543 5.40341 27.456C5.84091 27.6548 6.1875 27.9276 6.44318 28.2741C6.7017 28.6207 6.83807 29.0142 6.85227 29.4545H5.82955ZM10.0558 36L8.06143 29.4545H9.11825L10.533 34.4659H10.6012L11.9989 29.4545H13.0728L14.4535 34.4489H14.5217L15.9364 29.4545H16.9933L14.9989 36H14.0103L12.5785 30.9716H12.4762L11.0444 36H10.0558ZM18.3228 36V29.4545H19.3285V36H18.3228ZM18.8342 28.3636C18.6381 28.3636 18.4691 28.2969 18.3271 28.1634C18.1879 28.0298 18.1183 27.8693 18.1183 27.6818C18.1183 27.4943 18.1879 27.3338 18.3271 27.2003C18.4691 27.0668 18.6381 27 18.8342 27C19.0302 27 19.1978 27.0668 19.337 27.2003C19.479 27.3338 19.5501 27.4943 19.5501 27.6818C19.5501 27.8693 19.479 28.0298 19.337 28.1634C19.1978 28.2969 19.0302 28.3636 18.8342 28.3636ZM23.8295 36.1364C23.2159 36.1364 22.6875 35.9915 22.2443 35.7017C21.8011 35.4119 21.4602 35.0128 21.2216 34.5043C20.983 33.9957 20.8636 33.4148 20.8636 32.7614C20.8636 32.0966 20.9858 31.5099 21.2301 31.0014C21.4773 30.4901 21.821 30.0909 22.2614 29.804C22.7045 29.5142 23.2216 29.3693 23.8125 29.3693C24.2727 29.3693 24.6875 29.4545 25.0568 29.625C25.4261 29.7955 25.7287 30.0341 25.9645 30.3409C26.2003 30.6477 26.3466 31.0057 26.4034 31.4148H25.3977C25.321 31.1165 25.1506 30.8523 24.8864 30.6222C24.625 30.3892 24.2727 30.2727 23.8295 30.2727C23.4375 30.2727 23.0938 30.375 22.7983 30.5795C22.5057 30.7812 22.277 31.0668 22.1122 31.4361C21.9503 31.8026 21.8693 32.233 21.8693 32.7273C21.8693 33.233 21.9489 33.6733 22.108 34.0483C22.2699 34.4233 22.4972 34.7145 22.7898 34.9219C23.0852 35.1293 23.4318 35.233 23.8295 35.233C24.0909 35.233 24.3281 35.1875 24.5412 35.0966C24.7543 35.0057 24.9347 34.875 25.0824 34.7045C25.2301 34.5341 25.3352 34.3295 25.3977 34.0909H26.4034C26.3466 34.4773 26.206 34.8253 25.9815 35.1349C25.7599 35.4418 25.4659 35.6861 25.0994 35.8679C24.7358 36.0469 24.3125 36.1364 23.8295 36.1364ZM28.8793 32.0625V36H27.8736V27.2727H28.8793V30.4773H28.9645C29.1179 30.1392 29.348 29.8707 29.6548 29.6719C29.9645 29.4702 30.3764 29.3693 30.8906 29.3693C31.3366 29.3693 31.7273 29.4588 32.0625 29.6378C32.3977 29.8139 32.6577 30.0852 32.8423 30.4517C33.0298 30.8153 33.1236 31.2784 33.1236 31.8409V36H32.1179V31.9091C32.1179 31.3892 31.983 30.9872 31.7131 30.7031C31.446 30.4162 31.0753 30.2727 30.6009 30.2727C30.2713 30.2727 29.9759 30.3423 29.7145 30.4815C29.456 30.6207 29.2514 30.8239 29.1009 31.0909C28.9531 31.358 28.8793 31.6818 28.8793 32.0625ZM38.185 36V35.233L42.8896 28.2102H38.1339V27.2727H44.1509V28.0398L39.4464 35.0625H44.2021V36H38.185ZM48.4975 36.1364C47.9066 36.1364 47.3881 35.9957 46.9421 35.7145C46.4989 35.4332 46.1523 35.0398 45.9023 34.5341C45.6552 34.0284 45.5316 33.4375 45.5316 32.7614C45.5316 32.0795 45.6552 31.4844 45.9023 30.9759C46.1523 30.4673 46.4989 30.0724 46.9421 29.7912C47.3881 29.5099 47.9066 29.3693 48.4975 29.3693C49.0884 29.3693 49.6055 29.5099 50.0487 29.7912C50.4947 30.0724 50.8413 30.4673 51.0884 30.9759C51.3384 31.4844 51.4634 32.0795 51.4634 32.7614C51.4634 33.4375 51.3384 34.0284 51.0884 34.5341C50.8413 35.0398 50.4947 35.4332 50.0487 35.7145C49.6055 35.9957 49.0884 36.1364 48.4975 36.1364ZM48.4975 35.233C48.9464 35.233 49.3157 35.1179 49.6055 34.8878C49.8952 34.6577 50.1097 34.3551 50.2489 33.9801C50.3881 33.6051 50.4577 33.1989 50.4577 32.7614C50.4577 32.3239 50.3881 31.9162 50.2489 31.5384C50.1097 31.1605 49.8952 30.8551 49.6055 30.6222C49.3157 30.3892 48.9464 30.2727 48.4975 30.2727C48.0487 30.2727 47.6793 30.3892 47.3896 30.6222C47.0998 30.8551 46.8853 31.1605 46.7461 31.5384C46.6069 31.9162 46.5373 32.3239 46.5373 32.7614C46.5373 33.1989 46.6069 33.6051 46.7461 33.9801C46.8853 34.3551 47.0998 34.6577 47.3896 34.8878C47.6793 35.1179 48.0487 35.233 48.4975 35.233ZM54.0043 32.0625V36H52.9986V29.4545H53.9702V30.4773H54.0554C54.2088 30.1449 54.4418 29.8778 54.7543 29.6761C55.0668 29.4716 55.4702 29.3693 55.9645 29.3693C56.4077 29.3693 56.7955 29.4602 57.1278 29.642C57.4602 29.821 57.7188 30.0938 57.9034 30.4602C58.0881 30.8239 58.1804 31.2841 58.1804 31.8409V36H57.1747V31.9091C57.1747 31.3949 57.0412 30.9943 56.7741 30.7074C56.5071 30.4176 56.1406 30.2727 55.6747 30.2727C55.3537 30.2727 55.0668 30.3423 54.8139 30.4815C54.5639 30.6207 54.3665 30.8239 54.2216 31.0909C54.0767 31.358 54.0043 31.6818 54.0043 32.0625ZM62.7624 36.1364C62.1317 36.1364 61.5877 35.9972 61.1303 35.7188C60.6758 35.4375 60.3249 35.0455 60.0778 34.5426C59.8335 34.0369 59.7113 33.4489 59.7113 32.7784C59.7113 32.108 59.8335 31.517 60.0778 31.0057C60.3249 30.4915 60.6687 30.0909 61.109 29.804C61.5522 29.5142 62.0692 29.3693 62.6602 29.3693C63.0011 29.3693 63.3377 29.4261 63.6701 29.5398C64.0025 29.6534 64.305 29.8381 64.5778 30.0938C64.8505 30.3466 65.0678 30.6818 65.2298 31.0994C65.3917 31.517 65.4727 32.0312 65.4727 32.642V33.0682H60.4272V32.1989H64.4499C64.4499 31.8295 64.3761 31.5 64.2283 31.2102C64.0835 30.9205 63.8761 30.6918 63.6062 30.5241C63.3391 30.3565 63.0238 30.2727 62.6602 30.2727C62.2596 30.2727 61.913 30.3722 61.6204 30.571C61.3306 30.767 61.1076 31.0227 60.9513 31.3381C60.7951 31.6534 60.717 31.9915 60.717 32.3523V32.9318C60.717 33.4261 60.8022 33.8452 60.9727 34.1889C61.146 34.5298 61.386 34.7898 61.6928 34.9688C61.9996 35.1449 62.3562 35.233 62.7624 35.233C63.0266 35.233 63.2653 35.196 63.4783 35.1222C63.6942 35.0455 63.8803 34.9318 64.0366 34.7812C64.1928 34.6278 64.3136 34.4375 64.3988 34.2102L65.3704 34.483C65.2681 34.8125 65.0962 35.1023 64.8548 35.3523C64.6133 35.5994 64.315 35.7926 63.9599 35.9318C63.6048 36.0682 63.2056 36.1364 62.7624 36.1364Z" fill="#2D2D2D"/>
</svg>
